# xmcd
#
# Track frame offsets: 
#        150
#        16942
#        31803
#        45857
#        65479
#        84104
#        95050
#        109887
#        125230
#        137338
#        151483
#        169680
#
# Disc length: 2424 seconds
#
# Revision: 0
# Processed by: cddbd v1.5.2PL0 Copyright (c) Steve Scherf et al.
# Submitted via: ExactAudioCopyFreeDBPlugin 1.0
#
DISCID=8f09760c
DTITLE=Owen Temple - Passing Through
DYEAR=1999
DGENRE=Americana
TTITLE0=Downtown
TTITLE1=Driving Myself Crazy
TTITLE2=Can't Keep My Mind Off You
TTITLE3=Treat You Like I Do
TTITLE4=Lights Of Town
TTITLE5=Open Window
TTITLE6=Listening To The A.M.
TTITLE7=House Of Cards
TTITLE8=One Less Thing To Worry About
TTITLE9=Long Gone Daddy
TTITLE10=Passing Through
TTITLE11=I Wrote You A Waltz
EXTD=
EXTT0=
EXTT1=
EXTT2=
EXTT3=
EXTT4=
EXTT5=
EXTT6=
EXTT7=
EXTT8=
EXTT9=
EXTT10=
EXTT11=
PLAYORDER=
